<svg id="Capa_1" data-name="Capa 1" xmlns="http://www.w3.org/2000/svg" viewBox="0 0 533.42 244.21"><defs><style>.cls-1{fill:#2b211f;}.cls-2{fill:#c61e20;}.cls-3{fill:#edc296;}.cls-4{fill:#2862a2;}.cls-5{fill:#ee2f2e;}.cls-6{fill:#fdfdfd;}</style></defs><title>fran sprites</title><path class="cls-1" d="M549.71,59.07c1.21-2.16,2.14-5.85,3.71-6.15,2.87-.54,3.29,3.2,3.91,5.34a13.32,13.32,0,0,1-.66,10.05,16.46,16.46,0,0,1-1.53-1.23c-.76-3.31.54-8-5.27-7.91Z" transform="translate(-24.58 -21.3)"/><path class="cls-1" d="M67.88,263.16c-7.58-2.76-11.3-7.91-8.73-15.92,2.67-8.33,3-17,9.05-24.82,7-8.89-.78-15.5-8.13-20.66,9.12-3.4,1.83-8.32.87-12.45-.16-.71-3.55-3.25-5.15-.92-2.85,4.17-2,7.93,2.7,10.54.84.47,1.15,1.9,1.7,2.88-8.79-1.43-13.48-6.44-8.27-14.51,6-9.32,7.17-20.11,11.58-29.79,2.38-5.21,3.64-8.8-4.57-8.62-3.25.08-9.63-.11-7.85-5.38,1.47-4.33,7.93-9.52,12.23-5.6,9.32,8.52,19.51,7.68,30.24,6.3,4.74-.61,7.12,1.82,8.84,5.61-11.82.42-13.32,9.83-13.42,17.94-.11,9.49,10.13,11.09,16.21,15.71,1.18.89,2.93-.26,3.89-2.13,3.45-6.66-.88-27.23-6.85-31.61,8.35-1.79,11.24,1.48,11.1,10-.22,13-2.78,26.38,6.53,38.24,3.42,4.36-8.72,21.11-16.42,21.12-11.62,0-9.53,6.79-9,13.61-3.51,4-5.22,1.46-6.73-1.83,4.19-6.12.3-9.91-3.89-13.63,8.28,1.25,14.6-2.63,20.27-7.93,6.5-6.06-.09-11.93-1.6-17-1.59-5.32-4.9,1.09-7.59,1.86l-.65-.75-.78.62c.49-4.47,5.76-8.74-.29-13.44s-7.23,4.29-11.66,3.43c3.11-9.24,1.09-19.46,5.88-28.47,3.63-6.83-2.22-5.94-5.69-5.45-6.67.94-13.92,17-13.54,27.13.41,11.18,9.23,4,13.39,6.74-1.49,4-5.5,3.92-8.61,5.31-9.65.49-5.34,6.28-3.37,10.15,2.36,4.61,7.84,3.83,12.07,5.16-6,5.29,1.66,8.33,2.07,12.57-12.11,5.23-1.69,10.21.17,15.29a22.52,22.52,0,0,0-5,.33c-2.8.8-7.46-1.87-7.89,3.58-.33,4.08,2.38,5.77,6.1,6.56,1.42.29,2.63,1.6,3.94,2.45-1.59.48-3.52,1.79-4.7,1.29-5-2.12-8.8-2.57-10,4.3" transform="translate(-24.58 -21.3)"/><path class="cls-1" d="M118.69,257.67c1.14-3.54-1.07-6.73-3.4-9.18-7-7.35-15.36-5.25-23.67-3l-.4-.26c.81-4.29.39-8.86,3-12.71,3.17.6,2.88,5.79,8.54,4.54,6.35-1.4,12.08,3.81,16.34,8.73,8,9.23,5,18.57-7,19.69" transform="translate(-24.58 -21.3)"/><path class="cls-2" d="M37.14,56.93C44.23,41,56.49,31.63,73.39,28.05c7.76-3.22,15.72-3.14,23.77-1.36-1.86,4.73-6,3.73-9.79,4.15-16.89,1.9-31,8.83-40.94,23.09-1.69,2.42-4.62,4.42-3.18,7.8,1.8,4.2,6,3.27,9,2.56,7.66-1.82,15-3.39,22,1.78.91.67,2.44.48,3.69.69.15-13.3,9.77-2,13.76-5.32,1.58-1.31,4.06-2.66,4.31-4.28,1.56-9.89,6.81-19.41,3.44-29.86,6,.22,6.55,2,6,8.6-1.47,16-11.56,30.27-8.51,46.9h0c-7.34-.7-9.59,5.77-13.65,9.68-4.39,3.52-8.54,7.24-11,12.46-4,4.8-10.49,5.06-15.19,8.55-3.14,1.71-4.53-1.11-6.49-2.49-1.91-4.2-8.69-4.28-8.6-10.16.17-11.27-6.51-12.32-15.29-10.29h0C26.66,78.24,31.88,67.58,37.14,56.93Z" transform="translate(-24.58 -21.3)"/><path class="cls-3" d="M148.54,108.46c5.42,3.78,5.39,4.44-.65,13.46-10.95,4.32-17.32,18.4-31.9,15l.29.19c-7.77-8.34.36-21.21-8.35-29.28-3.12-8.58-11.29-14.93-11-25h0c9.22-4.81,18.18-10.49,29.4-8.14,3.78.8,4.6-2.27,4.38-4.59-1-10.07,6.75-9.34,12.43-9.5,5-.14,10,1.44,13.12-4.1l-.27.22c11.5-1.52,1.31,8.32,5.56,10.6l.11-.16c-2.87-1-4-.31-2.73,2.77l.14-.11-25.31,2.93c12.31,4.79,8.41,13.45,9.19,20.49C143.58,98.8,140.9,105.47,148.54,108.46ZM128.09,88.1c-.67-4-2.34-8.67-6.92-6.14-6,3.3-7.43,9.82-5.85,16.49,1.38,5.83,4.45,7.86,10.08,7.28C135.19,98.21,135.86,93.79,128.09,88.1Z" transform="translate(-24.58 -21.3)"/><path class="cls-1" d="M156.27,56.47c-3.13,5.54-8.08,4-13.12,4.1-5.68.16-13.42-.57-12.43,9.5.22,2.32-.6,5.39-4.38,4.59-11.22-2.35-20.18,3.33-29.4,8.14-3-16.63,7-30.93,8.51-46.9.6-6.56,0-8.38-6-8.59a2.79,2.79,0,0,0-2.34-.62c-8-1.78-16-1.86-23.77,1.36,2.48-8.72,10.54-6.34,15.92-6.68,12.77-.79,24.3,5.5,36.29,9.1-.73.78-1.45,1.55-2.16,2.33-7.41-3.55-13.55-1.61-14.51,6.46-1.39,11.79-5,23-8.49,35.54,9.9-5.54,17.91-11.93,27-14.64,11.85-3.51,11.57-8.83,6-17.21l2.36-2c1.5,1.94,3.86,3.68,4.35,5.85C142.24,55.91,148,58.12,156.27,56.47Z" transform="translate(-24.58 -21.3)"/><path class="cls-1" d="M107.93,107.81c8.71,8.07.58,20.94,8.35,29.28-12.39.86-21.22-11.7-34.15-9.26-.12,0-1-3.83-1.48-5.87.63-.53,1.27-1,1.91-1.55,4.52,7.32,12.38.62,17.62,4.11,9.34,6.23,8.88.75,7.55-6-.58-2.94-1.32-5.85-2-8.78Z" transform="translate(-24.58 -21.3)"/><path class="cls-1" d="M116,136.9c14.58,3.42,21-10.66,31.9-15,0,7.22-5.62,10.23-10.5,13.39s-11.08,4.1-8.47,12.52c.91,2.91-2.64,6.15-5.89,4.44-6-3.19,2.54-2.12,1.81-4.89C123.47,142.25,118,141.18,116,136.9Z" transform="translate(-24.58 -21.3)"/><path class="cls-1" d="M26.73,90.55c8.78-2,15.46-1,15.29,10.29-.09,5.88,6.69,6,8.6,10.16-4,.89-8.36-.06-13.72,3.76C41.85,101.54,34.21,96.08,26.73,90.55Z" transform="translate(-24.58 -21.3)"/><path class="cls-1" d="M148.54,108.46c-7.64-3-5-9.66-5.58-15.25-.78-7,3.12-15.7-9.19-20.49l25.31-2.93C144.87,79,143.27,84.89,148.54,108.46Z" transform="translate(-24.58 -21.3)"/><path class="cls-1" d="M37.14,56.93c-5.26,10.65-10.48,21.31-10.4,33.61A27.18,27.18,0,0,1,37.14,56.93Z" transform="translate(-24.58 -21.3)"/><path class="cls-1" d="M161.56,67.29C157.31,65,167.5,55.17,156,56.69c-.81-4,2.27-6.4,4.06-9.87C165,53.66,167.16,60.18,161.56,67.29Z" transform="translate(-24.58 -21.3)"/><path class="cls-1" d="M57.11,113.49c4.7-3.49,11.23-3.75,15.19-8.55l1.91,1.56c-2.09,5,3.42,6.14,4.86,9.35l-1.9,2.06C71.26,112.89,63.93,114.36,57.11,113.49Z" transform="translate(-24.58 -21.3)"/><path class="cls-1" d="M125.6,30.47a13.89,13.89,0,0,1,7.91,7.61l-2.07,2.31-8-7.59Z" transform="translate(-24.58 -21.3)"/><path class="cls-1" d="M80.65,122l-3.48-4,1.9-2.06q1.74,2.28,3.5,4.55Q81.6,121.17,80.65,122Z" transform="translate(-24.58 -21.3)"/><path class="cls-1" d="M133.51,38.08c.77,1,1.55,1.93,2.32,2.89l-2.35,2c-.67-.85-1.36-1.7-2-2.55Z" transform="translate(-24.58 -21.3)"/><path class="cls-1" d="M158.94,69.9c-1.28-3.08-.14-3.78,2.73-2.77A2.56,2.56,0,0,1,158.94,69.9Z" transform="translate(-24.58 -21.3)"/><path class="cls-4" d="M102.22,149.73c6,4.38,10.3,25,6.85,31.61-1,1.87-2.71,3-3.89,2.13-6.08-4.62-16.32-6.22-16.21-15.71.1-8.11,1.6-17.52,13.42-17.94Z" transform="translate(-24.58 -21.3)"/><path class="cls-2" d="M94.92,194.21c2.69-.77,6-7.18,7.59-1.86,1.51,5.06,8.1,10.93,1.6,17-5.67,5.3-12,9.18-20.27,7.93l-.1-.06c-.41-4.24-8.07-7.28-2.08-12.57Z" transform="translate(-24.58 -21.3)"/><path class="cls-4" d="M81.58,184c-4.16-2.78-13,4.43-13.39-6.75-.38-10.17,6.87-26.19,13.54-27.13,3.47-.49,9.32-1.38,5.69,5.45-4.79,9-2.77,19.23-5.88,28.47Z" transform="translate(-24.58 -21.3)"/><path class="cls-5" d="M94.34,260.93c-1.24-5.08-3.5-10-2.72-15.41,8.31-2.28,16.68-4.38,23.67,3,2.33,2.45,4.54,5.64,3.4,9.18" transform="translate(-24.58 -21.3)"/><path class="cls-2" d="M66.32,251c1.22-6.87,5-6.42,10-4.3,1.18.5,3.11-.81,4.7-1.29l10.18-.16.4.26c-.78,5.43,1.48,10.33,2.72,15.41" transform="translate(-24.58 -21.3)"/><path class="cls-6" d="M91.22,245.26,81,245.42c-1.31-.85-2.52-2.16-3.94-2.45-3.72-.79-6.43-2.48-6.1-6.56.43-5.45,5.09-2.78,7.89-3.58a22.52,22.52,0,0,1,5-.33c2,1.25,3.45,1.09,3.82-1.6,1.51,3.29,3.22,5.85,6.73,1.83l-.2-.18C91.61,236.4,92,241,91.22,245.26Z" transform="translate(-24.58 -21.3)"/><path class="cls-3" d="M94.92,194.21,81.66,204.64c-4.22-1.33-9.7-.55-12.06-5.16-2-3.87-6.28-9.66,3.38-10.15,1.09,3.93,3.6,5.73,7.37,3.81,4.73-2.41,8.83-.12,13.14.94l.78-.62Z" transform="translate(-24.58 -21.3)"/><path class="cls-6" d="M93.49,194.08c-4.31-1.06-8.41-3.35-13.14-.94-3.77,1.92-6.28.12-7.37-3.81,3.1-1.39,7.11-1.3,8.6-5.31l0,0c4.43.86,5.67-8.1,11.66-3.43S94,189.61,93.49,194.08Z" transform="translate(-24.58 -21.3)"/><path class="cls-4" d="M87.73,230.9c-.37,2.69-1.8,2.85-3.82,1.6-1.86-5.08-12.28-10.06-.17-15.29l.1.06C88,221,91.92,224.78,87.73,230.9Z" transform="translate(-24.58 -21.3)"/><path class="cls-3" d="M60.19,201.81c-.55-1-.86-2.41-1.7-2.88-4.75-2.61-5.55-6.37-2.7-10.54,1.6-2.33,5,.21,5.15.92,1,4.13,8.25,9.05-.87,12.45Z" transform="translate(-24.58 -21.3)"/><path class="cls-5" d="M97.16,26.69a2.79,2.79,0,0,1,2.34.62c3.37,10.44-1.88,20-3.44,29.85-.25,1.62-2.73,3-4.31,4.28-4,3.28-13.61-8-13.76,5.32-1.25-.21-2.78,0-3.69-.69-7-5.17-14.39-3.6-22-1.78-3,.71-7.2,1.64-9-2.56-1.44-3.38,1.49-5.38,3.18-7.8,10-14.26,24.05-21.19,40.94-23.09C91.11,30.42,95.3,31.42,97.16,26.69Z" transform="translate(-24.58 -21.3)"/><path class="cls-1" d="M97,82.8c-.32,10.08,7.85,16.43,11,25l-2.18,1.91c-3.13-4.52-7.2-8.65-9.21-13.62-3.24-8-6.7-6.22-11.13-1.57l-2.1-2C87.37,88.57,89.62,82.1,97,82.8Z" transform="translate(-24.58 -21.3)"/><path class="cls-1" d="M72.3,104.94c2.47-5.22,6.62-8.94,11-12.46.7.68,1.4,1.37,2.1,2q-5.61,6-11.2,12Z" transform="translate(-24.58 -21.3)"/><path class="cls-6" d="M125.4,105.73c-5.63.58-8.7-1.45-10.08-7.28-1.58-6.67-.1-13.19,5.85-16.49,4.58-2.53,6.25,2.13,6.92,6.14C118.7,92.68,124,99.51,125.4,105.73Z" transform="translate(-24.58 -21.3)"/><path class="cls-1" d="M125.4,105.73c-1.36-6.22-6.7-13,2.69-17.63C135.86,93.79,135.19,98.21,125.4,105.73Z" transform="translate(-24.58 -21.3)"/><path class="cls-5" d="M131.44,40.39c.68.85,1.37,1.7,2,2.55,5.55,8.39,5.83,13.71-6,17.22-9.11,2.71-17.12,9.1-27,14.64,3.54-12.55,7.1-23.75,8.49-35.54,1-8.07,7.1-10,14.51-6.46Z" transform="translate(-24.58 -21.3)"/><path class="cls-2" d="M74.21,106.5q5.6-6,11.2-12c4.43-4.64,7.89-6.44,11.13,1.58,2,5,6.08,9.1,9.21,13.62.66,2.94,1.4,5.85,2,8.79,1.33,6.76,1.79,12.24-7.55,6-5.24-3.49-13.1,3.21-17.62-4.11l-3.49-4.56C77.63,112.64,72.12,111.54,74.21,106.5Z" transform="translate(-24.58 -21.3)"/><path class="cls-1" d="M231.09,254c1.37-6.93-1.25-11.58-8.35-13.57-2.5-.7-4.75-2.16-3.89-5.51,5.25,1.29,12,6.64,13.77-3.42.93-5.2-12.2-11.08-18.5-8.77l-2.28-1.9c-12.73-6.94-16.08-19.19-18.21-32.13,7.5,8.2,15.75,9.28,24.79,2.55,5-.72,9.48-2.51,8.25-8.57-1.51-7.4-6.91-4-11-2.93-4.25,1.13-8.31.61-12.43-.24-4.36-4.16-6.08,4.14-10,2.11,3.64-7,7.55-13.94,10.83-21.15,1.72-3.8,11.65-6.76,1.91-12.42,2.48-4.25,4.26-13.19,10.22-8.69,11.15,8.43,22.37,8.37,34.75,6.24,1.87-.33,2.29,2,1.94,3.84-9.25,1.79-15.56,8.46-22.49,13.93-4.67,3.68-7.23,8.21-1.57,13.85,1.86,1.85,2.63,5.37,2.82,8.2.82,12.76,10.83,8,17.47,9.25,7.54,1.46,13.09-1.75,13.36-9.59.43-12.68,4.9-26.84-9.62-35.62,4.57.09,9.81-1.26,13.6.51,14.8,6.91,11.83-2.12,10.11-10.47,9.27-1.29,13.27-12,22.86-12.76,1.46,5.05-3.17,6.31-5.71,8.52-4.92,4.3-13.68,4.93-11.25,15.47.85,3.68-4.79,5.34-8.94,5.11-2.74-.14-6.12-2.29-6.19,3.18-.05,4.14,2.73,4.61,5.61,5.67,7,2.56,14.32,1.81,21.76,5.14,14.24,6.38,7.33,16.19,5.9,23.91-1.62,8.75-9.92,10-18.54,9.92-17.7-.19-34.77-8-52.73-4-.86-2.93,1.42-8.79-5.84-5.39-4.6,2.15-9.76,3.09-14.66,4.6-2.57.79-6.73-1.63-7.41,2.77a9.33,9.33,0,0,0,4.11,9c8.18,5.19,15.56,4,21.29-4.26,5.66,1.52,13.35-3.21,16.7,5.43-4-.18-10-2-8,5.21,1.11,4.06-.77,11.23,5.09,11.78,4.31.41,6.15-5.09,6.48-9.64.12-1.69.2-3.38.3-5.07,5.36,4.85,2.86,14.18,12.13,18.6-6.06,1-10.42,2.5-14.73,2.36-12.55-.41-12.74,4.78-6.71,13.37-7.33,8.07-3.15,12.49,5.33,13" transform="translate(-24.58 -21.3)"/><path class="cls-1" d="M234.83,153.53c-14-8.64-20.45,1.26-27,9.26-2.59,3.18-7.58,8.48-2.13,11.83,4.83,3,12.1,3.07,15-4.5A31.74,31.74,0,0,1,234.83,153.53Z" transform="translate(-24.58 -21.3)"/><path class="cls-1" d="M268.83,200.13c9.22-9.09,7.62-18.87,5.86-28.39-.51-2.73-5.44-5.8-6.09-1.93C267,179.26,263.68,189.3,268.83,200.13Z" transform="translate(-24.58 -21.3)"/><path class="cls-1" d="M297.76,176.16c-6.74,1.68-6,9.34-12.43,11-3.91,1-1.34,6.54,1.55,9.4,3.22,3.17,6.41,2.2,8.5-1.12C299.06,189.55,299.4,183.18,297.76,176.16Z" transform="translate(-24.58 -21.3)"/><path class="cls-2" d="M185.15,66.42q4.07-6.69,8.15-13.37c1.36.23,2.73.45,4.09.66-3.68,12.37.25,15.44,12.41,11.32,5-1.68,11.42-2.17,16.33,1.11,9.1,6.09,14.45-7.49,22.84-3.81a27.55,27.55,0,0,0,1.35-3.6c2.19-9.92,4.73-19.83,1.89-30.06,5-.18,8.8.75,7.23,7.18-5.38,21.89-5.26,46.06-26.05,61.52-2.48,1.85-5.64,4.35-4.31,8.58l.08-.08c-5.72,2.49-12.29,3.69-15.39,10.15-4.23,2.46-6.8-2-10.34-2.48-3.39-6-10.05-10.36-8.87-18.71.27-1.89.09-5.25-4.33-3.62-8.62,3.18-8.12-3.56-7.84-8.48C182.7,77.26,184.18,71.85,185.15,66.42Z" transform="translate(-24.58 -21.3)"/><path class="cls-3" d="M299.44,126.78c-9.59.72-13.59,11.47-22.86,12.76l-2.88-.06c-5.56-4.69-9-9.79-7.62-17.94.78-4.64-.49-10.26-5.74-13.2l.34-.09c-1.22-6.87-8.41-11-8.61-18.19-.24-8.67,7.46-12.42,13.18-12.81,10.11-.67,27-9.27,29.3,3.47,2.7,14.68,10.36,30.22,4.57,46.16ZM268.35,96.24c3,2.4-.9,15.89,11.65,7.25,3.4-2.35-1-8.46,1.94-13.07,1.36-2.11-.78-8-6.14-7.54C268.86,83.47,268.61,88.92,268.35,96.24Z" transform="translate(-24.58 -21.3)"/><path class="cls-1" d="M299.12,126.88c5.79-15.94-1.87-31.48-4.57-46.16-2.34-12.74-19.19-4.14-29.3-3.47-5.72.39-13.42,4.14-13.18,12.81.2,7.15,7.39,11.32,8.61,18.19-9.73-1.14-8.57-12.4-15.09-16.61L229.08,106c-1.33-4.23,1.83-6.73,4.31-8.58,20.79-15.46,20.67-39.63,26.05-61.52,1.57-6.43-2.27-7.36-7.23-7.18-5-1.51-10.07-1.11-15.11,0-7.41-.62-13.39,2.56-18.85,7.1a3.22,3.22,0,0,0-1.94.9l-2.75,2-5.66,4.19-4.21,1.48-2.42-1.75C219.43,26.4,239,16.83,263.87,27.37c6.6,2.79,15.56,0,19.76,8.52-6.38,2-15.07-8.47-19,1.14-4.73,11.66-6.19,24.64-9.58,39.29,5.45-3.43,8.56-5.57,11.84-7.42,3.68-2.09,7.44-4.07,11.29-5.85,15-6.93,15-6.88,6.54-20.51-1.25-2-3.48-4-1.13-6.67,6,3.24,9.45,9,11.35,14.84,2.53,7.77,7,9.89,14.3,8.56-2,5.84-6.56,4.09-10.53,3.41-5.16-.89-9.55-.24-13.42,3.95,6.22,7,14.21,7,21.49,8.74-7.07,4-9.11,20.6-3.76,30.58C307.65,114.52,306.71,119.49,299.12,126.88Z" transform="translate(-24.58 -21.3)"/><path class="cls-2" d="M229.08,106l16.51-14.31c6.52,4.21,5.36,15.47,15.09,16.61l-.34.09c-1.94,4.78,1.27,8.8,2,13.17,1.11,6.32-2.18,8-7.58,7.84l0,.05c0-6.16-4-2-6.27-2.47-11.42,5.29-13.9-7.49-21.23-10.5-2-4,2.13-6.88,1.84-10.56Z" transform="translate(-24.58 -21.3)"/><path class="cls-2" d="M208.8,250.21c-.32-3.64.07-7.85-5.72-7.06l0,0,2.58-15.83h0c4.38.16,5.86,6.27,10.8,5.27l-.19-.09c-.47,2.23.51,3,2.64,2.64l-.09-.21c-.86,3.35,1.39,4.81,3.89,5.51,7.1,2,9.72,6.64,8.35,13.57" transform="translate(-24.58 -21.3)"/><path class="cls-2" d="M226.84,206.36c-5.73,8.23-13.11,9.45-21.29,4.26a9.33,9.33,0,0,1-4.11-9c.68-4.4,4.84-2,7.41-2.77,4.9-1.51,10.06-2.45,14.66-4.6,7.26-3.4,5,2.46,5.84,5.39C228.52,201.89,227.68,204.12,226.84,206.36Z" transform="translate(-24.58 -21.3)"/><path class="cls-2" d="M243.39,261.36c-8.48-.47-12.66-4.89-5.33-13,5.68-1.25,12.36,1.5,16.9-4.26l5.36-.86c-2.95,8,3.79,9.93,8.31,13.24" transform="translate(-24.58 -21.3)"/><path class="cls-3" d="M306.81,75.37c-7.28-1.75-15.27-1.71-21.49-8.74,3.87-4.19,8.26-4.84,13.42-3.95,4,.68,8.55,2.43,10.53-3.41,8.41-4.77,9.36,1.47,7.78,6.53C315.74,70,313.6,75.87,306.81,75.37Z" transform="translate(-24.58 -21.3)"/><path class="cls-1" d="M185.15,66.42c-1,5.43-2.45,10.84-2.76,16.31-.28,4.92-.78,11.66,7.84,8.48,4.42-1.63,4.6,1.73,4.33,3.62-1.18,8.35,5.48,12.7,8.87,18.71-6.72,1-13.72,2.88-12-8.59.23-1.57-.82-5.17-3.7-7.41C174.6,87.34,174.22,80.05,185.15,66.42Z" transform="translate(-24.58 -21.3)"/><path class="cls-1" d="M277.71,252.3c3.61-2.78,10.69-4.34,6.82-11.3-3.09-5.56-8.71-6.5-14.5-5-4.12,1.05-8.16,2.64-9.71,7.31l-5.36.86c-.36-12.88,10.29-11.51,17.82-12.88,8.05-1.47,14.09,3.06,17.43,10.41,3,6.64-2.89,8.91-6.63,12.13" transform="translate(-24.58 -21.3)"/><path class="cls-3" d="M193.25,181.66c3.91,2,5.63-6.27,10-2.11,1.72,8.23,12.53,4.71,15.18,11.74-9,6.73-17.29,5.65-24.79-2.55C193.5,186.38,193.38,184,193.25,181.66Z" transform="translate(-24.58 -21.3)"/><path class="cls-1" d="M254.8,129.35c5.4.17,8.69-1.52,7.58-7.84-.77-4.37-4-8.39-2-13.17,5.25,2.94,6.52,8.56,5.74,13.2-1.38,8.15,2.06,13.25,7.62,17.94C261.24,147.6,258.51,137.55,254.8,129.35Z" transform="translate(-24.58 -21.3)"/><path class="cls-4" d="M247.37,214.07c-.1,1.69-.18,3.38-.3,5.07-.33,4.55-2.17,10.05-6.48,9.64-5.86-.55-4-7.72-5.09-11.78-2-7.26,4-5.39,8-5.21a2.82,2.82,0,0,1-.29-.18l4.19,3Z" transform="translate(-24.58 -21.3)"/><path class="cls-1" d="M229.16,105.87c.29,3.68-3.89,6.57-1.84,10.56L213.77,116C216.87,109.56,223.44,108.36,229.16,105.87Z" transform="translate(-24.58 -21.3)"/><path class="cls-1" d="M216.49,232.62c-4.94,1-6.42-5.11-10.8-5.27l6.15-6.48,2.28,1.9C212.47,226.64,216.48,229.15,216.49,232.62Z" transform="translate(-24.58 -21.3)"/><path class="cls-1" d="M205.7,227.36l-2.58,15.83C197.56,236.87,199.49,231.76,205.7,227.36Z" transform="translate(-24.58 -21.3)"/><path class="cls-1" d="M208.8,250.21c-3.77-.84-5-3.76-5.72-7.06,5.79-.79,5.4,3.42,5.72,7.06" transform="translate(-24.58 -21.3)"/><path class="cls-1" d="M197.39,53.71c-1.36-.21-2.73-.43-4.09-.66-1.46-3.56,1.35-4.57,3.54-5.95.61.84,1.23,1.67,1.83,2.5-.36,1.4-.73,2.81-1.1,4.22Z" transform="translate(-24.58 -21.3)"/><path class="cls-1" d="M248.55,126.93c2.22.49,6.29-3.69,6.27,2.47C252.28,129.7,249.77,130,248.55,126.93Z" transform="translate(-24.58 -21.3)"/><path class="cls-1" d="M198.6,45.25l2.67-2.69,2.41,1.74c-.83.85-1.66,1.69-2.5,2.53Z" transform="translate(-24.58 -21.3)"/><path class="cls-1" d="M196.84,47.1c.59-.61,1.18-1.23,1.76-1.85l2.58,1.58a6.06,6.06,0,0,0,0,2.4l-.27.31a5.41,5.41,0,0,0-2.23.06Z" transform="translate(-24.58 -21.3)"/><path class="cls-1" d="M247.44,214.6l-4.19-3C245.92,210.81,247,212.3,247.44,214.6Z" transform="translate(-24.58 -21.3)"/><path class="cls-4" d="M252.87,149.5c14.52,8.78,10.05,22.94,9.62,35.62-.27,7.84-5.82,11-13.36,9.59-6.64-1.28-16.65,3.51-17.47-9.25-.19-2.83-1-6.35-2.82-8.2-5.66-5.64-3.1-10.17,1.57-13.85,6.93-5.47,13.24-12.14,22.49-13.93Z" transform="translate(-24.58 -21.3)"/><path class="cls-4" d="M234.83,153.53a31.74,31.74,0,0,0-14.11,16.59c-2.9,7.57-10.17,7.48-15,4.5-5.45-3.35-.46-8.65,2.13-11.83C214.38,154.79,220.79,144.89,234.83,153.53Z" transform="translate(-24.58 -21.3)"/><path class="cls-3" d="M268.83,200.13c-5.15-10.83-1.81-20.87-.23-30.32.65-3.87,5.58-.8,6.09,1.93C276.45,181.26,278.05,191,268.83,200.13Z" transform="translate(-24.58 -21.3)"/><path class="cls-3" d="M216.49,232.62c0-3.47-4-6-2.37-9.85,6.3-2.31,19.43,3.57,18.5,8.77-1.79,10.06-8.52,4.71-13.77,3.42l.09.21c.14-1.91-.81-2.71-2.64-2.64Z" transform="translate(-24.58 -21.3)"/><path class="cls-2" d="M297.76,176.16c1.64,7,1.3,13.39-2.38,19.26-2.09,3.32-5.28,4.29-8.5,1.12-2.89-2.86-5.46-8.4-1.55-9.4C291.79,185.5,291,177.84,297.76,176.16Z" transform="translate(-24.58 -21.3)"/><path class="cls-6" d="M218.42,191.29c-2.65-7-13.46-3.51-15.18-11.74,4.12.85,8.18,1.37,12.43.24,4.09-1.09,9.49-4.47,11,2.93C227.9,188.78,223.41,190.57,218.42,191.29Z" transform="translate(-24.58 -21.3)"/><path class="cls-5" d="M207.9,42.83l5.66-4.19,2.75-2a3.22,3.22,0,0,1,1.94-.9c7.15-.08,14.69.9,18.85-7.1,5-1.12,10.07-1.52,15.11,0,2.84,10.23.3,20.14-1.89,30.06a27.55,27.55,0,0,1-1.35,3.6c-8.39-3.68-13.74,9.9-22.84,3.81-4.91-3.28-11.37-2.79-16.33-1.11-12.16,4.12-16.09,1-12.41-11.32l.18.11c2.41-.42,3.08-2.19,3.34-4.28l.27-.32C205.26,49,208.84,48.3,207.9,42.83Z" transform="translate(-24.58 -21.3)"/><path class="cls-6" d="M268.35,96.24c.26-7.32.51-12.77,7.45-13.36,5.36-.46,7.5,5.43,6.14,7.54-3,4.61,1.46,10.72-1.94,13.07C267.45,112.13,271.37,98.64,268.35,96.24Z" transform="translate(-24.58 -21.3)"/><path class="cls-5" d="M283.62,35.87c-2.35,2.68-.12,4.66,1.13,6.67,8.47,13.63,8.48,13.58-6.54,20.51-3.85,1.78-7.61,3.76-11.29,5.85-3.28,1.85-6.39,4-11.84,7.42,3.39-14.65,4.85-27.63,9.58-39.29,3.9-9.61,12.59.86,19-1.14Z" transform="translate(-24.58 -21.3)"/><path class="cls-2" d="M237.1,28.68c-4.16,8-11.7,7-18.85,7.1C223.71,31.24,229.69,28.06,237.1,28.68Z" transform="translate(-24.58 -21.3)"/><path class="cls-2" d="M207.9,42.83c.94,5.47-2.64,6.2-6.72,6.39a6,6,0,0,1,0-2.39c.84-.84,1.67-1.68,2.5-2.53Z" transform="translate(-24.58 -21.3)"/><path class="cls-2" d="M216.31,36.68l-2.75,2Z" transform="translate(-24.58 -21.3)"/><path class="cls-1" d="M216.3,232.53c1.83-.07,2.78.73,2.64,2.64C216.81,235.54,215.83,234.76,216.3,232.53Z" transform="translate(-24.58 -21.3)"/><path class="cls-5" d="M268.63,256.52c-4.52-3.31-11.26-5.23-8.31-13.24,1.55-4.67,5.59-6.26,9.71-7.31,5.79-1.47,11.41-.53,14.5,5,3.87,7-3.21,8.52-6.82,11.3" transform="translate(-24.58 -21.3)"/><path class="cls-2" d="M200.91,49.54c-.26,2.09-.93,3.86-3.34,4.28.37-1.41.74-2.82,1.1-4.22A5.46,5.46,0,0,1,200.91,49.54Z" transform="translate(-24.58 -21.3)"/><path class="cls-3" d="M458.09,105.2c6.42,15.42,4.37,20.91-13,34.69-5.55-3.5-11.63,4.22-17.11-.81-1.66-3.15-4.62-5.26-3.54-10.07,1.77-7.84-1-15.13-6.41-21.25l-5.33-7.7c-3.49-6.63-4.19-13,1.89-18.64l.07-.12c7.95-2.24,15.81-4.44,24.32-3.6,11.08,1.11,17.47,5.52,16.31,17.87C455,98.61,452,103.55,458.09,105.2ZM440.65,92.8c-2.82-1.67,1.05-7.29-4.49-7.44-3.7-.11-6.93,1.23-8.65,4.19-3.64,6.26,1.89,16.27,10,18.84C446.13,104.71,449.39,100,440.65,92.8Z" transform="translate(-24.58 -21.3)"/><path class="cls-1" d="M386.32,256c6.12-13.64-4.51-15.09-13.11-18l-5.82-5.13c7.75.58,11.09-2.36,8.19-10.28,2.52-.11,5.15.19,7.53-.44,2.89-.78,5.92-2.38,6-5.87,0-3.11-2.81-4-5.4-4.3-3.46-.41-7.13-.78-7.56,4.3q-.27,3.17-.52,6.34c-5.09-2.2-4.83-19.19-15.61-5.66-3.23-.15-4.4-2.49-5.37-5-.08-5-3.85-4.61-7.21-5-4.91-.54-8.91-2.53-10.87-7.45.72-.65,1.44-1.3,2.15-2,13.27,9.23,16.07,8.92,26.13-2.27,1-1.07,3.18-1,4.82-1.47.34,4.64-4.89,12.19,4.45,12.48,9,.27,17.56,4.58,26.72,2.8,7.33-.07,13.16-.15,15.29,10.11,1.3,6.27,8.78,12,16.45,3.71,2.58-2.79,5.32-1.48,8.08-.41-3.43,3.45-8.79,4.93-10.41,10.22l-1,2.5c-.4,1.72-.81,3.44-1.21,5.16-4.39,2.58-7.54,6.87-12.78,8.4-3.07.9-8.77.87-5.56,7.16" transform="translate(-24.58 -21.3)"/><path class="cls-1" d="M369.52,262.57c-7.32-2.49-13.88-6.69-17.34-14.25,7.71-1,10.06,9.32,17.72,8.46" transform="translate(-24.58 -21.3)"/><path class="cls-1" d="M396.35,215.86c3.95,5.57,3.37,14.63,13.35,14,2.42-.16,5.23-2.1,3.84-5.18C410.44,217.77,406.39,211.92,396.35,215.86Z" transform="translate(-24.58 -21.3)"/><path class="cls-1" d="M458.09,105.2c-6-1.65-3-6.59-2.76-9.63C456.49,83.22,450.1,78.81,439,77.7c-8.51-.84-16.37,1.36-24.32,3.59-.27-5.86,7.72-6,8-11.49,5.69-2.48,11.28-5.26,17.11-7.34,8.13-2.9,9.36-7.37,4.58-14.37-2.91-4.27-5.47-8.65-11.06-9.75-.78-4.65-3.76-5.62-7.38-3.6-5.59,3.12-6.66,8.41-5.61,14.33-.17,2.52-.33,5-.5,7.56-3.34,7.93-10.66,15-5.18,24.79-6.08,5.67-5.38,12-1.89,18.64l-2.24,2.09c-4.12-1.07-2.34-12-8.6-7-7.55,6-17.22,11.65-17.28,23.62-7.28-3.94-14.74.71-22.07-.48a5.75,5.75,0,0,0,.25-2c21.1-1.17,32-18.19,41.77-32.15,6.5-9.3,13.65-23.63,8.14-38l2.43-9.78c5.74-2,4.35-3.28-.09-5.69-10.67-5.78-21.41,1.52-32-.76,3.07-3.45,7.33-3.85,11.5-4.49,24.9-3.84,48.28,7.42,59.83,30,4,7.84,8.59,6.23,14.33,3.72l.16.1c.27,4.83-3.13,5.76-6.45,4.84-7.08-2-12.8.14-18.79,4,11.67,9.6,19.55,9.22,30.51-.89a16.46,16.46,0,0,0,1.53,1.23c-1.16,1.71-2,4.55-3.55,5C454.24,78.25,457.08,92.09,458.09,105.2Z" transform="translate(-24.58 -21.3)"/><path class="cls-1" d="M428,139.08c5.48,5,11.56-2.69,17.11.81-6.73,2.11-6.8,8.7-6,13,1,5.38,6.54-.35,9.38,1.2,4.73,2.58,11.19-2.22,14.87,3.8-10.89,4.29-8.06,16.72-14.06,24.08-1.55,1.91,1.95,4.11,4.87,3.7,3.31-.46,6.59-1.12,9.89-1.7-4.13,9.46-13.79,6.05-20.74,8.95,4.78-7.47.11-14.82-.29-22.23a28.68,28.68,0,0,1,4.6-1.7c3.13-.57,7.24.16,5.69-5.35-.86-3.08-2.11-5.9-5.89-5.52-4.91.5-4.62,3.94-4,7.63.27,1.58-.22,3.3-.37,5a23.57,23.57,0,0,1-2.48-2.84c-2.35-3.81-4.79-7.63-10.06-4.75s-1.37,6.79-.25,9.95c2.43,6.84.22,13.56.17,20.33-1.85-.67-5.24-2.08-5.34-1.89-7.66,15.75-22.41,7.15-33.76,10l.16.15a3.18,3.18,0,0,0-3.58-2.45l-10.55-4.42c10.45-3.41,20.17,2.83,30.55,2.23,8.19-.47,11.78-3.5,11.72-11.55-.1-12.82,4.13-27-11.14-34.93,5.11,2.33,10.32,2.07,15.6.63,3.53,3,7.7,5.4,10.47,0,2.64-5.15-2.41-6-5.86-7.49-1-.43-1.5-1.94-2.23-3Z" transform="translate(-24.58 -21.3)"/><path class="cls-1" d="M340.51,163.89c4.39-3.6,8.4-7.89,13.26-10.64,6.47-3.65,3.93-7.28,1.26-11.4,17.21-4.2,31.26,10.26,48.13,8.18.68,8.65-5.82,9.24-11.67,10-11.18,1.42-18.4,5.71-17,18.78.43,4-1.58,8.3-2.48,12.45a1.78,1.78,0,0,1-1.34-.05,8.14,8.14,0,0,0-5.38-5.25c2.32-3.79,9.75-9.54,2.48-11.55-8.51-2.36-15.79-8.32-24.93-8.34C342.07,165.33,341.29,164.61,340.51,163.89Zm53.54-11.5c-9.73,0-19.47-.12-29.19.05-5.28.09-8.48,3.87-11.28,7.7-1.52,2.09-.29,4,1.74,5.35,3.76,2.47,8.49,4.83,11.88,1.46C374.81,159.36,384.72,157.06,394.05,152.39Z" transform="translate(-24.58 -21.3)"/><path class="cls-2" d="M369.9,256.78c-7.66.86-10-9.42-17.72-8.46l.19.08c.18-10.76-9.19-20.39-3.74-31.76.63-3.31,3.64-3.58,6-4.71,1,2.55,2.14,4.89,5.37,5-.52,6.7,5.12,10.53,7.41,15.91l5.82,5.13c-13.62,4.05-7.56,11.57-3.31,18.77" transform="translate(-24.58 -21.3)"/><path class="cls-3" d="M403.15,150c-16.86,2.08-30.91-12.38-48.12-8.18-2.52.52-4.47,0-5.21-2.8,5.51-3.07-1.9-6.62.36-9.82,9.52,3.71,21.59,4.71,28.71,8.71,10.61,6,19.83,7.76,30.71,6.92,6.18-.48,10.33,2.64,14.48,6.28-5.26,1.45-10.47,1.71-15.59-.63Z" transform="translate(-24.58 -21.3)"/><path class="cls-3" d="M443,170.72c.4,7.41,5.07,14.76.29,22.23-4.06,6.35-8.31,7.53-12.88.48.05-6.77,2.26-13.49-.17-20.33-1.12-3.16-5.16-7,.25-9.95s7.71.94,10.06,4.75a23.57,23.57,0,0,0,2.48,2.84Z" transform="translate(-24.58 -21.3)"/><path class="cls-5" d="M430.21,232.71c1.62-5.29,7-6.77,10.41-10.22,4.69-1.47,9.2-1.7,13.13,2,2,12.52-10.26,16-15.19,24.17-4.78-1.14-5.13-8-10.59-8.25.4-1.72.81-3.44,1.2-5.16C429.51,234.38,429.86,233.54,430.21,232.71Z" transform="translate(-24.58 -21.3)"/><path class="cls-1" d="M349.1,114c1.75-7.46,2.35-13.72-7.45-16.83-5.93-1.89-6.38-8.28-5.43-14.17,2.1-13.06,8.86-23.6,17.62-33.09l2,2.23q-.82,3.11-1.64,6.21l-.27.14c-8.93,5.92-11.27,15.58-13.88,25-1.12,4,.39,7.44,3.78,10.18,4.24,3.43,5.59-1.23,8.31-2.9.13,8.84,1.24,17.06,8.14,23.18l-7,.42Z" transform="translate(-24.58 -21.3)"/><path class="cls-2" d="M464.06,184c-3.3.58-6.58,1.24-9.89,1.7-2.92.41-6.42-1.79-4.87-3.7,6-7.36,3.17-19.79,14.06-24.08C467.61,166.51,476.27,175,464.06,184Z" transform="translate(-24.58 -21.3)"/><path class="cls-2" d="M383.05,29.87c10.59,2.28,21.33-5,32,.76,4.44,2.41,5.83,3.69.09,5.69-12.87-5.67-25-3.71-36.5,3.7-4.26,2.74-8,6.7-13.75,5.6l-.48-4,6.31-5.06c5.11-.28,10.08-.85,12.64-6.27Z" transform="translate(-24.58 -21.3)"/><path class="cls-3" d="M370.67,191.2a1.8,1.8,0,0,0,1.35.05l5.35,3.52,10.57,4.42,3.56,2.45-.16-.15c.53,5.83,7,4.26,9.48,7.59-9.18,1.78-17.7-2.53-26.74-2.8-9.34-.29-4.11-7.84-4.45-12.48Z" transform="translate(-24.58 -21.3)"/><path class="cls-1" d="M436.4,251.83l2.16-3.21c4.93-8.14,17.23-11.65,15.19-24.17,3.94,2.25,6.41,4.08,3.1,9.62-4.83,8.07-10.25,15.12-18.49,19.79" transform="translate(-24.58 -21.3)"/><path class="cls-1" d="M348.63,216.64c-5.45,11.37,3.92,21,3.74,31.76-7.36-6.22-8.45-15.09-9.57-23.73C342.33,221,341.62,215.59,348.63,216.64Z" transform="translate(-24.58 -21.3)"/><path class="cls-1" d="M336.53,199.5c-3.72-12.43-2-24.27,4-35.61.78.72,1.56,1.44,2.33,2.17-3.5,5.49-3.39,10.89.43,16.2-4.84,4.1-7.26,8.93-4.59,15.28C338,198.2,337.25,198.85,336.53,199.5Z" transform="translate(-24.58 -21.3)"/><path class="cls-4" d="M349.1,114l4.18.34-3.59,4.1-.1.11c-.57,1-1.14,2-1.72,2.94,0,2.38,0,4.76,0,7.14l-1.81,2.16C339.34,123.83,340.41,118.24,349.1,114Z" transform="translate(-24.58 -21.3)"/><path class="cls-1" d="M383.36,30.32c-2.56,5.42-7.53,6-12.64,6.27C373.26,31.13,378,30.07,383.36,30.32Z" transform="translate(-24.58 -21.3)"/><path class="cls-4" d="M350.19,129.23c-2.27,3.2,5.14,6.75-.37,9.82l-3.72-8.24,1.81-2.16A6.73,6.73,0,0,1,350.19,129.23Z" transform="translate(-24.58 -21.3)"/><path class="cls-1" d="M364.41,41.65l.48,4v.19L360.81,47l-2.4-1.84Z" transform="translate(-24.58 -21.3)"/><path class="cls-1" d="M355.81,47.76l2.6-2.64,2.4,1.84-2.63,2.49Z" transform="translate(-24.58 -21.3)"/><path class="cls-1" d="M353.84,49.93l2-2.17,2.37,1.69-2.37,2.71Z" transform="translate(-24.58 -21.3)"/><path class="cls-6" d="M437.53,108.39c-8.13-2.57-13.66-12.58-10-18.84,1.72-3,4.95-4.3,8.65-4.19,5.54.15,1.67,5.77,4.48,7.44C432.25,96.53,435.14,102.51,437.53,108.39Z" transform="translate(-24.58 -21.3)"/><path class="cls-1" d="M418.07,107.76c5.37,6.12,8.18,13.41,6.41,21.25-1.08,4.81,1.88,6.92,3.54,10.07l-1.54,1.63c-4-3.43-7.74,3.6-11.74.3l-.23-.68c0-2.18.07-4.36.11-6.53,11.21-7.47,3.66-15.81,1.1-23.92Z" transform="translate(-24.58 -21.3)"/><path class="cls-1" d="M437.53,108.39c-2.39-5.88-5.28-11.86,3.11-15.59C449.39,100,446.13,104.71,437.53,108.39Z" transform="translate(-24.58 -21.3)"/><path class="cls-1" d="M412.74,100.06l5.33,7.7-2.34,2.11-5.24-7.71Z" transform="translate(-24.58 -21.3)"/><path class="cls-2" d="M338.68,197.54c-2.67-6.35-.25-11.18,4.58-15.29l-.86.6c1.54,4.69,5.33,3.54,8.74,3.38l14.15-.28a8.14,8.14,0,0,1,5.38,5.25l-1,2.6c-1.64.46-3.86.4-4.82,1.47C354.75,206.46,352,206.77,338.68,197.54Z" transform="translate(-24.58 -21.3)"/><path class="cls-5" d="M369.9,256.78c-4.25-7.2-10.31-14.72,3.31-18.77,8.6,2.91,19.23,4.36,13.11,18" transform="translate(-24.58 -21.3)"/><path class="cls-2" d="M409.63,255.93c-3.21-6.29,2.49-6.26,5.56-7.16,5.24-1.53,8.39-5.82,12.78-8.4,5.46.29,5.81,7.11,10.59,8.25l-2.16,3.21" transform="translate(-24.58 -21.3)"/><path class="cls-6" d="M367.39,232.88c-2.29-5.38-7.93-9.21-7.41-15.91,10.78-13.53,10.52,3.46,15.61,5.66v0C378.48,230.52,375.14,233.46,367.39,232.88Z" transform="translate(-24.58 -21.3)"/><path class="cls-4" d="M396.35,215.86c10-3.94,14.09,1.91,17.19,8.78,1.39,3.08-1.42,5-3.84,5.18C399.72,230.49,400.3,221.43,396.35,215.86Z" transform="translate(-24.58 -21.3)"/><path class="cls-4" d="M375.59,222.63q.26-3.18.52-6.34c.43-5.08,4.1-4.71,7.56-4.3,2.59.3,5.43,1.19,5.4,4.3,0,3.49-3.07,5.09-6,5.87-2.38.63-5,.33-7.53.44Z" transform="translate(-24.58 -21.3)"/><path class="cls-2" d="M430.21,232.71c-.35.83-.7,1.67-1,2.5C429.52,234.38,429.86,233.54,430.21,232.71Z" transform="translate(-24.58 -21.3)"/><path class="cls-2" d="M360.25,113.94c-6.9-6.12-8-14.34-8.14-23.18-2.72,1.67-4.07,6.33-8.31,2.9-3.39-2.74-4.9-6.15-3.78-10.18,2.61-9.39,5-19,13.88-25,2.57,3.42-1,13.25,7.44,9.95,9.45-3.71,18.24-2,27.4-1.35l1.15.59-1.1-.63c.45-2.74,1.4-5.67,4.79-3.77,14.53,8.13,15.73-1.17,16-11.93a6.15,6.15,0,0,1,3.09-5.27c5.51,14.35-1.64,28.68-8.14,38-9.75,14-20.67,31-41.77,32.15l.11.15c0-1.83-.88-2.79-2.78-2.64Z" transform="translate(-24.58 -21.3)"/><path class="cls-5" d="M412.71,46.1a6.15,6.15,0,0,0-3.09,5.27c-.31,10.76-1.51,20.06-16,11.93-3.39-1.9-4.34,1-4.79,3.77l-.05,0c-9.16-.66-17.95-2.36-27.4,1.35-8.43,3.3-4.87-6.53-7.44-9.95,0,0,.27-.14.27-.13,6.4-1.79,10.78-5.29,10.71-12.57v-.19c5.79,1.1,9.49-2.86,13.75-5.6,11.51-7.41,23.63-9.37,36.5-3.7Z" transform="translate(-24.58 -21.3)"/><path class="cls-6" d="M414.74,141c4,3.3,7.74-3.73,11.74-.3.73,1,1.25,2.53,2.23,3,3.45,1.5,8.5,2.34,5.86,7.49-2.77,5.39-6.94,3-10.47,0-4.17-3.65-8.32-6.77-14.5-6.29-10.88.84-20.1-1-30.71-6.92-7.12-4-19.19-5-28.71-8.71a6.61,6.61,0,0,0-2.27-.58c0-2.38,0-4.76,0-7.14.58-1,1.15-2,1.72-2.94l.1-.11a24.82,24.82,0,0,1,12.86-.21c7.33,1.19,14.79-3.46,22.06.48,6.59.9,5.53,6.87,7.29,11-.51,1.67-.51,3.39,1.32,4.05.65.23,1.79-.91,2.71-1.42a4.7,4.7,0,0,1,.94-1.19l16.88,2.55.87.09c0,2.17-.07,4.35-.11,6.52l-.51,1Z" transform="translate(-24.58 -21.3)"/><path class="cls-2" d="M391.9,129.72c-1.76-4.12-.7-10.09-7.29-11,.07-12,9.74-17.63,17.29-23.62,6.26-5,4.48,6,8.6,7q2.61,3.87,5.23,7.72c2.55,8.12,10.1,16.46-1.11,23.93l-.87-.08c-4.55-7.88-10.71-5.26-16.88-2.56a4.57,4.57,0,0,0-.93,1.18Q393.93,131,391.9,129.72Z" transform="translate(-24.58 -21.3)"/><path class="cls-5" d="M419.81,56.63c.17-2.52.33-5,.5-7.56,3.79-4.23,4.63-12,13-10.73,5.59,1.1,8.15,5.48,11.06,9.75,4.78,7,3.55,11.47-4.58,14.37-5.83,2.08-11.42,4.86-17.11,7.34C415.91,66.67,425.15,60.06,419.81,56.63Z" transform="translate(-24.58 -21.3)"/><path class="cls-3" d="M468.87,59.17c5.81-.06,4.51,4.6,5.27,7.91-11,10.11-18.84,10.49-30.51.89,6-3.82,11.71-5.91,18.79-4C465.74,64.93,469.14,64,468.87,59.17Z" transform="translate(-24.58 -21.3)"/><path class="cls-2" d="M419.81,56.63c5.34,3.43-3.9,10,2.86,13.17-.25,5.49-8.24,5.63-8,11.49l-.07.13C409.15,71.65,416.47,64.56,419.81,56.63Z" transform="translate(-24.58 -21.3)"/><path class="cls-2" d="M433.3,38.34c-8.36-1.31-9.2,6.5-13,10.73-1.05-5.92,0-11.21,5.61-14.33C429.54,32.72,432.52,33.69,433.3,38.34Z" transform="translate(-24.58 -21.3)"/><path class="cls-3" d="M362.55,118.25a24.82,24.82,0,0,0-12.86.21l3.59-4.1,7-.42-.12-.2c0,1.82,1.28,2.36,2.78,2.64l-.11-.15A5.75,5.75,0,0,1,362.55,118.25Z" transform="translate(-24.58 -21.3)"/><path class="cls-4" d="M377.37,194.77,372,191.25c.89-4.15,2.9-8.43,2.47-12.45-1.4-13.07,5.82-17.36,17-18.78,5.85-.75,12.35-1.34,11.67-10l5.33.48c15.28,8,11.05,22.12,11.15,34.94.06,8.05-3.53,11.08-11.72,11.55C397.54,197.6,387.82,191.36,377.37,194.77Z" transform="translate(-24.58 -21.3)"/><path class="cls-2" d="M443.06,170.74c.15-1.66.64-3.38.37-5-.62-3.69-.91-7.13,4-7.63,3.78-.38,5,2.44,5.89,5.52,1.55,5.51-2.56,4.78-5.69,5.35a28.68,28.68,0,0,0-4.6,1.7Z" transform="translate(-24.58 -21.3)"/><path class="cls-6" d="M391.5,201.64l-3.56-2.45A3.17,3.17,0,0,1,391.5,201.64Z" transform="translate(-24.58 -21.3)"/><path class="cls-6" d="M365.29,186l-14.15.28c-2.22-2.94-4.55-5.58-8.74-3.38l.86-.6c-3.81-5.3-3.92-10.7-.42-16.19,9.14,0,16.42,6,24.93,8.34C375,176.41,367.61,182.16,365.29,186Z" transform="translate(-24.58 -21.3)"/><path class="cls-4" d="M394.05,152.39c-9.33,4.67-19.24,7-26.85,14.56-3.39,3.37-8.12,1-11.88-1.46-2-1.33-3.26-3.26-1.74-5.35,2.8-3.83,6-7.61,11.28-7.7C374.58,152.27,384.32,152.39,394.05,152.39Z" transform="translate(-24.58 -21.3)"/><path class="cls-2" d="M364.88,45.81c.07,7.28-4.31,10.78-10.71,12.57q.81-3.12,1.64-6.22l2.37-2.71L360.81,47Z" transform="translate(-24.58 -21.3)"/><path class="cls-3" d="M349.59,118.57c-.57,1-1.14,2-1.72,2.94C348.45,120.53,349,119.55,349.59,118.57Z" transform="translate(-24.58 -21.3)"/><path class="cls-3" d="M414.74,141l-.74.33.51-1S414.74,141,414.74,141Z" transform="translate(-24.58 -21.3)"/><path class="cls-1" d="M342.4,182.85c4.19-2.2,6.52.44,8.74,3.38C347.73,186.39,343.94,187.54,342.4,182.85Z" transform="translate(-24.58 -21.3)"/><path class="cls-5" d="M388.79,67.07l1.1.63-1.15-.59Z" transform="translate(-24.58 -21.3)"/><path class="cls-1" d="M362.91,116.38c-1.5-.28-2.75-.82-2.78-2.64C362,113.59,362.88,114.55,362.91,116.38Z" transform="translate(-24.58 -21.3)"/><path class="cls-3" d="M396.87,131.16c6.17-2.7,12.33-5.32,16.88,2.56Z" transform="translate(-24.58 -21.3)"/><path class="cls-3" d="M391.9,129.72q2,1.31,4,2.62c-.93.52-2.07,1.66-2.72,1.43C391.39,133.11,391.39,131.39,391.9,129.72Z" transform="translate(-24.58 -21.3)"/><path class="cls-1" d="M277.4,105.73c-1.36-6.22-6.7-13,2.69-17.63C287.86,93.79,287.19,98.21,277.4,105.73Z" transform="translate(-24.58 -21.3)"/></svg>